<?xml version="1.0" encoding="UTF-8"?>
<svg version="1.1" xmlns="http://www.w3.org/2000/svg" width="32" height="32">
<path d="M0 0 C8.58 0 17.16 0 26 0 C29.375 7.875 29.375 7.875 29.07421875 13.15234375 C29.02612061 14.14999756 28.97802246 15.14765137 28.9284668 16.17553711 C28.84894775 17.41698486 28.76942871 18.65843262 28.6875 19.9375 C28.460625 23.918125 28.23375 27.89875 28 32 C18.1 32 8.2 32 -2 32 C-2.226875 28.019375 -2.45375 24.03875 -2.6875 19.9375 C-2.76701904 18.69605225 -2.84653809 17.45460449 -2.9284668 16.17553711 C-2.97656494 15.1778833 -3.02466309 14.18022949 -3.07421875 13.15234375 C-3.13182373 12.14163818 -3.18942871 11.13093262 -3.2487793 10.08959961 C-3 7 -3 7 0 0 Z " fill="#C6E3F6" transform="translate(3,0)"/>
<path d="M0 0 C8.58 0 17.16 0 26 0 C28.86818579 6.69243352 29.3466601 8.41345819 29 15 C21 15 21 15 18.625 14.4375 C15.72199991 13.95366665 13.85494679 14.37330436 11 15 C9.00039988 15.039992 6.99952758 15.04346799 5 15 C4.01 15 3.02 15 2 15 C0.33333333 15 -1.33333333 15 -3 15 C-3.3466601 8.41345819 -2.86818579 6.69243352 0 0 Z " fill="#E07172" transform="translate(3,0)"/>
<path d="M0 0 C0.33 0 0.66 0 1 0 C1 5.28 1 10.56 1 16 C5.95 16 10.9 16 16 16 C16 11.38 16 6.76 16 2 C18.97 2 21.94 2 25 2 C25 6.62 25 11.24 25 16 C26.32 16 27.64 16 29 16 C29 10.72 29 5.44 29 0 C29.33 0 29.66 0 30 0 C30 5.61 30 11.22 30 17 C20.1 17 10.2 17 0 17 C0 11.39 0 5.78 0 0 Z " fill="#6D94C6" transform="translate(1,15)"/>
<path d="M0 0 C8.58 0 17.16 0 26 0 C26.66 2.31 27.32 4.62 28 7 C27.34 6.67 26.68 6.34 26 6 C24.06442322 5.90300154 22.12550463 5.86923799 20.1875 5.8671875 C18.45113281 5.86525391 18.45113281 5.86525391 16.6796875 5.86328125 C14.85824219 5.86908203 14.85824219 5.86908203 13 5.875 C11.17855469 5.86919922 11.17855469 5.86919922 9.3203125 5.86328125 C8.16273437 5.86457031 7.00515625 5.86585938 5.8125 5.8671875 C4.74644531 5.86831543 3.68039062 5.86944336 2.58203125 5.87060547 C0.0131786 5.82595802 0.0131786 5.82595802 -2 7 C-1.34 4.69 -0.68 2.38 0 0 Z " fill="#DE6969" transform="translate(3,0)"/>
<path d="M0 0 C8.58 0 17.16 0 26 0 C26.66 1.32 27.32 2.64 28 4 C18.1 4 8.2 4 -2 4 C-1.34 2.68 -0.68 1.36 0 0 Z " fill="#F4A0A0" transform="translate(3,5)"/>
<path d="M0 0 C2.31 0 4.62 0 7 0 C7 3.96 7 7.92 7 12 C4.69 12 2.38 12 0 12 C0 8.04 0 4.08 0 0 Z " fill="#8DB8F0" transform="translate(18,18)"/>
<path d="M0 0 C2.97 0 5.94 0 9 0 C9 2.31 9 4.62 9 7 C6.03 7 3.06 7 0 7 C0 4.69 0 2.38 0 0 Z " fill="#7AA2D3" transform="translate(5,17)"/>
<path d="M0 0 C3.63 0 7.26 0 11 0 C10.67 1.32 10.34 2.64 10 4 C7.03 4 4.06 4 1 4 C0.67 2.68 0.34 1.36 0 0 Z " fill="#EE8384" transform="translate(1,10)"/>
<path d="M0 0 C0.33 0 0.66 0 1 0 C1 5.28 1 10.56 1 16 C-0.32 16 -1.64 16 -3 16 C-3 11.38 -3 6.76 -3 2 C-2.67 2 -2.34 2 -2 2 C-2 5.3 -2 8.6 -2 12 C-1.34 12 -0.68 12 0 12 C0 8.04 0 4.08 0 0 Z " fill="#A8C9E5" transform="translate(29,15)"/>
<path d="M0 0 C1.32 0 2.64 0 4 0 C4 3.96 4 7.92 4 12 C3.34 12 2.68 12 2 12 C1.93941406 11.30132812 1.87882812 10.60265625 1.81640625 9.8828125 C1.73261719 8.97273438 1.64882813 8.06265625 1.5625 7.125 C1.48128906 6.22007813 1.40007813 5.31515625 1.31640625 4.3828125 C1.13010715 1.98889139 1.13010715 1.98889139 0 0 Z " fill="#DAF0FD" transform="translate(25,15)"/>
<path d="M0 0 C1.65 0 3.3 0 5 0 C5 1.65 5 3.3 5 5 C3.35 5 1.7 5 0 5 C0 3.35 0 1.7 0 0 Z " fill="#8BB7F0" transform="translate(7,18)"/>
<path d="M0 0 C0.33 0.66 0.66 1.32 1 2 C2.98 1.34 4.96 0.68 7 0 C7 1.33333333 7 2.66666667 7 4 C4.03 4 1.06 4 -2 4 C-1.34 2.68 -0.68 1.36 0 0 Z " fill="#CEDDEC" transform="translate(19,13)"/>
<path d="M0 0 C2.64 0.99 5.28 1.98 8 3 C8 3.33 8 3.66 8 4 C5.36 4 2.72 4 0 4 C0 2.68 0 1.36 0 0 Z " fill="#CDDDED" transform="translate(6,13)"/>
<path d="M0 0 C1.65 0 3.3 0 5 0 C4.67 1.32 4.34 2.64 4 4 C3.01 4 2.02 4 1 4 C0.67 2.68 0.34 1.36 0 0 Z " fill="#F68E8E" transform="translate(7,10)"/>
</svg>
